<svg xmlns="http://www.w3.org/2000/svg" width="32.092" height="25.674" viewBox="0 0 32.092 25.674">
  <path id="Favicon" d="M26.476,22.465H5.616a.8.8,0,0,0-.8.8v1.6a.8.8,0,0,0,.8.8h20.86a.8.8,0,0,0,.8-.8v-1.6A.8.8,0,0,0,26.476,22.465ZM29.685,6.418a2.408,2.408,0,0,0-2.407,2.407,2.358,2.358,0,0,0,.221.993l-3.63,2.176a1.6,1.6,0,0,1-2.216-.582L17.565,4.262a2.407,2.407,0,1,0-3.039,0L10.44,11.413a1.6,1.6,0,0,1-2.216.582L4.6,9.818a2.406,2.406,0,1,0-2.191,1.414,2.458,2.458,0,0,0,.386-.04L6.418,20.86H25.674L29.3,11.192a2.458,2.458,0,0,0,.386.04,2.407,2.407,0,0,0,0-4.814Z" fill="#fff"/>
</svg>
